<?xml version="1.0" encoding="UTF-8"?>
<svg id="Layer_1" data-name="Layer 1" xmlns="http://www.w3.org/2000/svg" viewBox="0 0 613.158 123.128">
  <defs>
    <style>
      .cls-1 {
        fill: #231815;
      }
    </style>
  </defs>
  <g>
    <path class="cls-1" d="M563.173,121.508c2.098,0,3.798-1.7,3.798-3.798V48.314c0-2.442-.221-5.297,1.554-7.231,1.845-2.185,4.857-1.73,7.401-1.037l-.014-.013c2.827.851,5.905,1.125,9.111.621,9.182-1.443,16.358-9.106,17.164-18.366,1.1-12.62-9.271-23.119-21.85-22.236-9.133.642-16.811,7.497-18.588,16.479-.767,3.877-.348,7.558.848,10.867l-.04-.037c.715,1.927,1.217,3.716.859,5.975-.291,1.836-1.951,3.803-4.29,4.047-1.766.185-3.142.035-5.032.179-6.181.47-11.132,5.137-11.132,10.845v69.179c0,2.166,1.756,3.921,3.921,3.921h16.29Z"/>
    <path class="cls-1" d="M494.252,35.438c-9.672,0-18.044,3.013-25.021,9.07-6.977-6.056-15.318-9.07-24.991-9.07-9.926,0-18.171,2.411-24.768,7.389-7.96,5.993-11.923,14.588-11.923,25.846v48.934s0,1.902,1.172,2.822c0,0,1.015,1.078,2.728,1.078h15.572c1.966,0,2.918-1.141,2.918-1.141,1.109-1.047,1.109-2.759,1.109-2.759v-57.718c0-3.393,1.27-6.248,3.902-8.564,2.6-2.346,5.77-3.551,9.418-3.551s6.883,1.205,9.419,3.551c2.664,2.315,3.933,5.17,3.933,8.564v57.718s.063,1.871,1.237,2.886c0,0,.919.951,2.758,1.014h15.223c1.903.031,2.791-1.047,2.791-1.047,1.237-1.172,1.172-2.853,1.172-2.853v-57.718c0-3.393,1.27-6.248,3.902-8.564,2.632-2.346,5.676-3.551,9.356-3.551,3.583,0,6.722,1.205,9.323,3.551,2.599,2.315,3.869,5.17,3.869,8.564v57.718s.126,3.774,3.963,3.9h15.509c3.932,0,3.996-3.9,3.996-3.9v-48.934c.221-6.754-1.207-11.988-3.552-16.554-5.708-11.132-16.714-16.682-33.014-16.682h0Z"/>
    <path class="cls-1" d="M86.736,35.627c-9.705,0-17.983,3.013-24.99,9.039-6.977-6.026-15.319-9.039-24.99-9.039-9.894,0-18.171,2.442-24.799,7.39C4.026,48.979,0,57.605,0,68.896v48.711s.063,1.902,1.205,2.822c0,0,1.046,1.078,2.759,1.078h15.572c1.966,0,2.949-1.141,2.949-1.141,1.142-1.047,1.014-2.759,1.014-2.759v-57.528c0-3.361,1.333-6.215,3.933-8.594,2.601-2.315,5.74-3.488,9.419-3.488s6.881,1.172,9.546,3.488c2.505,2.379,3.869,5.233,3.869,8.594v57.528s.031,1.871,1.172,2.886c0,0,1.014.951,2.76,1.014h15.286c1.966.031,2.852-1.047,2.852-1.047,1.11-1.172,1.11-2.853,1.11-2.853v-57.528c0-3.361,1.238-6.215,3.806-8.594,2.569-2.315,5.803-3.488,9.387-3.488,3.616,0,6.724,1.172,9.323,3.488,2.569,2.379,3.869,5.233,3.869,8.594v57.528s.095,3.774,3.964,3.9h15.541c3.9,0,4.027-3.9,4.027-3.9v-48.711c.222-6.82-1.205-12.02-3.584-16.619-5.74-11.1-16.712-16.649-33.044-16.649h.001Z"/>
    <path class="cls-1" d="M294.807,45.745c-7.642-6.787-16.807-10.148-27.559-10.148s-19.947,3.33-27.621,10.148c-7.549,6.785-11.226,14.904-11.036,24.483v47.38s.031,3.9,3.963,3.9h15.128c3.963,0,3.9-3.9,3.9-3.9v-56.164c-.063-3.679,1.205-7.167,4.345-9.895,3.108-2.759,6.914-4.155,11.353-4.155,4.345,0,8.151,1.397,11.322,4.092,3.171,2.759,4.407,6.342,4.376,9.863v56.26s.096,3.9,3.964,3.9h14.938c1.807,0,2.853-1.141,2.853-1.141,1.27-1.205,1.111-3.013,1.111-3.013v-47.125c.285-9.579-3.394-17.697-11.037-24.483v-.002Z"/>
    <path class="cls-1" d="M395.401,69.815c.286-9.513-3.361-17.695-11.036-24.482-7.61-6.754-16.807-10.181-27.527-10.181s-19.915,3.427-27.591,10.181c-7.642,6.787-11.353,14.937-11.067,24.482v47.793s.063,3.9,3.964,3.9h15.126c3.996,0,3.902-3.9,3.902-3.9v-23.039h31.364v23.039s.126,3.9,4.028,3.9h14.874c1.807,0,2.918-1.141,2.918-1.141,1.299-1.205,1.045-3.013,1.045-3.013v-47.538h0ZM372.536,79.155h-31.364v-18.094c-.064-3.678,1.205-7.167,4.376-9.926,3.108-2.728,6.881-4.123,11.322-4.123,4.409,0,8.119,1.395,11.353,4.092,3.108,2.759,4.408,6.373,4.313,9.926v18.125h0Z"/>
    <path class="cls-1" d="M175.978,35.184c-22.581,0-39.578,14.937-41.068,32.761v22.453c1.521,17.981,18.33,32.791,41.068,32.728,22.357.19,40.181-14.43,41.195-32.728v-22.453c-1.047-18.077-18.648-32.761-41.195-32.761ZM193.387,96.962c.19,8.023-7.866,13.826-17.41,13.826-9.482,0-17.188-6.152-17.188-13.826v-35.645c0-8.025,8.182-13.669,17.188-13.795,10.053.031,17.41,6.12,17.41,13.795v35.645Z"/>
  </g>
  <g>
    <path class="cls-1" d="M597.81,95.043c2.307,0,4.012.46,5.124,1.378,1.112.919,1.663,2.307,1.663,4.175,0,1.745-.49,3.021-1.459,3.838-.98.806-2.194,1.286-3.644,1.439l5.553,8.564h-3.246l-5.277-8.339h-3.195v8.339h-3.021v-19.394h7.502,0ZM596.483,103.648c.673,0,1.317-.02,1.929-.061.602-.041,1.143-.174,1.613-.378.48-.204.857-.521,1.133-.95.286-.429.429-1.03.429-1.807,0-.643-.133-1.164-.378-1.551-.255-.378-.582-.674-.98-.888-.398-.204-.857-.347-1.378-.418-.51-.072-1.021-.112-1.531-.112h-3.991v6.165s3.154,0,3.154,0Z"/>
    <path class="cls-1" d="M596.732,121.218c-9.058,0-16.433-7.368-16.433-16.426s7.374-16.432,16.433-16.432,16.426,7.374,16.426,16.432-7.369,16.426-16.426,16.426ZM596.732,90.977c-7.619,0-13.815,6.196-13.815,13.815s6.196,13.809,13.815,13.809,13.809-6.196,13.809-13.809-6.196-13.815-13.809-13.815Z"/>
  </g>
</svg>